<svg id="visual" viewBox="0 0 1920 1080" width="1920" height="1080" xmlns="http://www.w3.org/2000/svg" xmlns:xlink="http://www.w3.org/1999/xlink" version="1.1"><path d="M0 260L101 185L202 185L303 163L404 174L505 141L606 141L707 141L808 271L909 163L1011 271L1112 228L1213 163L1314 228L1415 239L1516 249L1617 271L1718 249L1819 217L1920 152L1920 0L1819 0L1718 0L1617 0L1516 0L1415 0L1314 0L1213 0L1112 0L1011 0L909 0L808 0L707 0L606 0L505 0L404 0L303 0L202 0L101 0L0 0Z" fill="#7cc4ff"></path><path d="M0 357L101 336L202 347L303 293L404 282L505 303L606 293L707 239L808 401L909 314L1011 368L1112 368L1213 293L1314 379L1415 390L1516 336L1617 390L1718 401L1819 325L1920 314L1920 150L1819 215L1718 247L1617 269L1516 247L1415 237L1314 226L1213 161L1112 226L1011 269L909 161L808 269L707 139L606 139L505 139L404 172L303 161L202 183L101 183L0 258Z" fill="#53afff"></path><path d="M0 411L101 368L202 390L303 336L404 336L505 347L606 347L707 293L808 433L909 357L1011 411L1112 411L1213 336L1314 433L1415 444L1516 379L1617 422L1718 444L1819 379L1920 368L1920 312L1819 323L1718 399L1617 388L1516 334L1415 388L1314 377L1213 291L1112 366L1011 366L909 312L808 399L707 237L606 291L505 301L404 280L303 291L202 345L101 334L0 355Z" fill="#2599ff"></path><path d="M0 465L101 401L202 433L303 390L404 379L505 379L606 390L707 336L808 476L909 390L1011 455L1112 444L1213 390L1314 476L1415 487L1516 411L1617 465L1718 487L1819 433L1920 401L1920 366L1819 377L1718 442L1617 420L1516 377L1415 442L1314 431L1213 334L1112 409L1011 409L909 355L808 431L707 291L606 345L505 345L404 334L303 334L202 388L101 366L0 409Z" fill="#0080ff"></path><path d="M0 530L101 476L202 519L303 444L404 455L505 455L606 476L707 422L808 530L909 455L1011 519L1112 530L1213 476L1314 541L1415 573L1516 487L1617 563L1718 541L1819 519L1920 487L1920 399L1819 431L1718 485L1617 463L1516 409L1415 485L1314 474L1213 388L1112 442L1011 453L909 388L808 474L707 334L606 388L505 377L404 377L303 388L202 431L101 399L0 463Z" fill="#2f63ff"></path><path d="M0 584L101 530L202 563L303 476L404 487L505 498L606 530L707 465L808 563L909 509L1011 552L1112 563L1213 519L1314 573L1415 638L1516 541L1617 595L1718 573L1819 552L1920 530L1920 485L1819 517L1718 539L1617 561L1516 485L1415 571L1314 539L1213 474L1112 528L1011 517L909 453L808 528L707 420L606 474L505 453L404 453L303 442L202 517L101 474L0 528Z" fill="#4455ff"></path><path d="M0 671L101 638L202 638L303 595L404 584L505 606L606 638L707 530L808 660L909 606L1011 671L1112 671L1213 638L1314 660L1415 703L1516 660L1617 671L1718 692L1819 671L1920 638L1920 528L1819 550L1718 571L1617 593L1516 539L1415 636L1314 571L1213 517L1112 561L1011 550L909 507L808 561L707 463L606 528L505 496L404 485L303 474L202 561L101 528L0 582Z" fill="#4455ff"></path><path d="M0 714L101 714L202 703L303 638L404 649L505 649L606 714L707 606L808 703L909 681L1011 714L1112 735L1213 714L1314 735L1415 757L1516 714L1617 714L1718 746L1819 735L1920 714L1920 636L1819 669L1718 690L1617 669L1516 658L1415 701L1314 658L1213 636L1112 669L1011 669L909 604L808 658L707 528L606 636L505 604L404 582L303 593L202 636L101 636L0 669Z" fill="#2f63ff"></path><path d="M0 757L101 779L202 746L303 692L404 714L505 703L606 757L707 671L808 779L909 725L1011 779L1112 779L1213 779L1314 789L1415 811L1516 779L1617 757L1718 789L1819 789L1920 757L1920 712L1819 733L1718 744L1617 712L1516 712L1415 755L1314 733L1213 712L1112 733L1011 712L909 679L808 701L707 604L606 712L505 647L404 647L303 636L202 701L101 712L0 712Z" fill="#0080ff"></path><path d="M0 789L101 822L202 779L303 735L404 746L505 746L606 800L707 714L808 811L909 757L1011 822L1112 822L1213 822L1314 833L1415 854L1516 822L1617 789L1718 833L1819 833L1920 789L1920 755L1819 787L1718 787L1617 755L1516 777L1415 809L1314 787L1213 777L1112 777L1011 777L909 723L808 777L707 669L606 755L505 701L404 712L303 690L202 744L101 777L0 755Z" fill="#2599ff"></path><path d="M0 995L101 1016L202 1005L303 995L404 995L505 1005L606 1027L707 995L808 973L909 973L1011 1016L1112 995L1213 1016L1314 1005L1415 1027L1516 984L1617 995L1718 1005L1819 995L1920 1016L1920 787L1819 831L1718 831L1617 787L1516 820L1415 852L1314 831L1213 820L1112 820L1011 820L909 755L808 809L707 712L606 798L505 744L404 744L303 733L202 777L101 820L0 787Z" fill="#53afff"></path><path d="M0 1081L101 1081L202 1081L303 1081L404 1081L505 1081L606 1081L707 1081L808 1081L909 1081L1011 1081L1112 1081L1213 1081L1314 1081L1415 1081L1516 1081L1617 1081L1718 1081L1819 1081L1920 1081L1920 1014L1819 993L1718 1003L1617 993L1516 982L1415 1025L1314 1003L1213 1014L1112 993L1011 1014L909 971L808 971L707 993L606 1025L505 1003L404 993L303 993L202 1003L101 1014L0 993Z" fill="#7cc4ff"></path></svg>